<mxfile host="app.diagrams.net" modified="2022-05-23T14:16:50.356Z" agent="5.0 (Windows NT 10.0; Win64; x64) AppleWebKit/537.36 (KHTML, like Gecko) Chrome/101.0.4951.54 Safari/537.36" etag="vsfjnfX_-zI036zPL1vE" version="18.0.3" type="github">
  <diagram id="R2lEEEUBdFMjLlhIrx00" name="Page-1">
    <mxGraphModel dx="1673" dy="896" grid="1" gridSize="10" guides="1" tooltips="1" connect="1" arrows="1" fold="1" page="1" pageScale="1" pageWidth="850" pageHeight="1100" math="0" shadow="0" extFonts="Permanent Marker^https://fonts.googleapis.com/css?family=Permanent+Marker">
      <root>
        <mxCell id="0" />
        <mxCell id="1" parent="0" />
        <mxCell id="C-vyLk0tnHw3VtMMgP7b-12" value="" style="edgeStyle=entityRelationEdgeStyle;endArrow=ERzeroToMany;startArrow=ERone;endFill=1;startFill=0;" parent="1" target="C-vyLk0tnHw3VtMMgP7b-17" edge="1">
          <mxGeometry width="100" height="100" relative="1" as="geometry">
            <mxPoint x="700" y="165" as="sourcePoint" />
            <mxPoint x="460" y="205" as="targetPoint" />
          </mxGeometry>
        </mxCell>
        <mxCell id="5iUK_qK8FwpwGGYTWvAY-1" value="MOVIE&amp;nbsp;" style="rounded=0;whiteSpace=wrap;html=1;" vertex="1" parent="1">
          <mxGeometry x="190" y="105" width="120" height="60" as="geometry" />
        </mxCell>
        <mxCell id="5iUK_qK8FwpwGGYTWvAY-2" value="ID" style="ellipse;whiteSpace=wrap;html=1;" vertex="1" parent="1">
          <mxGeometry x="720" y="370" width="50" height="40" as="geometry" />
        </mxCell>
        <mxCell id="5iUK_qK8FwpwGGYTWvAY-3" value="ADULT" style="ellipse;whiteSpace=wrap;html=1;" vertex="1" parent="1">
          <mxGeometry x="360" y="255" width="60" height="40" as="geometry" />
        </mxCell>
        <mxCell id="5iUK_qK8FwpwGGYTWvAY-5" style="edgeStyle=orthogonalEdgeStyle;rounded=0;orthogonalLoop=1;jettySize=auto;html=1;exitX=0.5;exitY=1;exitDx=0;exitDy=0;" edge="1" parent="1" source="5iUK_qK8FwpwGGYTWvAY-2" target="5iUK_qK8FwpwGGYTWvAY-2">
          <mxGeometry relative="1" as="geometry" />
        </mxCell>
        <mxCell id="5iUK_qK8FwpwGGYTWvAY-6" value="BUDGET" style="ellipse;whiteSpace=wrap;html=1;" vertex="1" parent="1">
          <mxGeometry x="205" y="5" width="60" height="40" as="geometry" />
        </mxCell>
        <mxCell id="5iUK_qK8FwpwGGYTWvAY-7" value="HOMEPAGE" style="ellipse;whiteSpace=wrap;html=1;" vertex="1" parent="1">
          <mxGeometry x="282.5" y="5" width="90" height="40" as="geometry" />
        </mxCell>
        <mxCell id="5iUK_qK8FwpwGGYTWvAY-8" value="ORIGINAL LANGUAGE" style="ellipse;whiteSpace=wrap;html=1;" vertex="1" parent="1">
          <mxGeometry x="23.75" y="30" width="80" height="50" as="geometry" />
        </mxCell>
        <mxCell id="5iUK_qK8FwpwGGYTWvAY-9" value="ORIGINAL TITLE" style="ellipse;whiteSpace=wrap;html=1;" vertex="1" parent="1">
          <mxGeometry x="7.500000000000002" y="125" width="120" height="35" as="geometry" />
        </mxCell>
        <mxCell id="5iUK_qK8FwpwGGYTWvAY-10" value="TITLE" style="ellipse;whiteSpace=wrap;html=1;" vertex="1" parent="1">
          <mxGeometry x="127.5" y="10" width="50" height="30" as="geometry" />
        </mxCell>
        <mxCell id="5iUK_qK8FwpwGGYTWvAY-11" value="TAGLINE" style="ellipse;whiteSpace=wrap;html=1;" vertex="1" parent="1">
          <mxGeometry x="10" y="195" width="60" height="30" as="geometry" />
        </mxCell>
        <mxCell id="5iUK_qK8FwpwGGYTWvAY-12" value="OVERVIEW" style="ellipse;whiteSpace=wrap;html=1;" vertex="1" parent="1">
          <mxGeometry x="200" y="280" width="95" height="25" as="geometry" />
        </mxCell>
        <mxCell id="5iUK_qK8FwpwGGYTWvAY-13" value="POPULARITY" style="ellipse;whiteSpace=wrap;html=1;" vertex="1" parent="1">
          <mxGeometry x="35" y="235" width="100" height="30" as="geometry" />
        </mxCell>
        <mxCell id="5iUK_qK8FwpwGGYTWvAY-14" value="RELEASE_DATE" style="ellipse;whiteSpace=wrap;html=1;" vertex="1" parent="1">
          <mxGeometry x="95" y="265" width="110" height="30" as="geometry" />
        </mxCell>
        <mxCell id="5iUK_qK8FwpwGGYTWvAY-15" value="REVENUE" style="ellipse;whiteSpace=wrap;html=1;" vertex="1" parent="1">
          <mxGeometry x="400" y="180" width="80" height="30" as="geometry" />
        </mxCell>
        <mxCell id="5iUK_qK8FwpwGGYTWvAY-16" value="RUNTIME" style="ellipse;whiteSpace=wrap;html=1;" vertex="1" parent="1">
          <mxGeometry x="492.5" y="5" width="80" height="30" as="geometry" />
        </mxCell>
        <mxCell id="5iUK_qK8FwpwGGYTWvAY-22" value="" style="endArrow=none;html=1;rounded=0;exitX=1;exitY=0;exitDx=0;exitDy=0;entryX=0;entryY=1;entryDx=0;entryDy=0;" edge="1" parent="1" source="5iUK_qK8FwpwGGYTWvAY-11" target="5iUK_qK8FwpwGGYTWvAY-1">
          <mxGeometry width="50" height="50" relative="1" as="geometry">
            <mxPoint x="200" y="235" as="sourcePoint" />
            <mxPoint x="250" y="185" as="targetPoint" />
          </mxGeometry>
        </mxCell>
        <mxCell id="5iUK_qK8FwpwGGYTWvAY-23" value="" style="endArrow=none;html=1;rounded=0;exitX=0.5;exitY=1;exitDx=0;exitDy=0;" edge="1" parent="1" source="5iUK_qK8FwpwGGYTWvAY-10">
          <mxGeometry width="50" height="50" relative="1" as="geometry">
            <mxPoint x="270" y="45" as="sourcePoint" />
            <mxPoint x="260" y="105" as="targetPoint" />
          </mxGeometry>
        </mxCell>
        <mxCell id="5iUK_qK8FwpwGGYTWvAY-24" value="" style="endArrow=none;html=1;rounded=0;exitX=0.317;exitY=0.075;exitDx=0;exitDy=0;exitPerimeter=0;" edge="1" parent="1" source="5iUK_qK8FwpwGGYTWvAY-3">
          <mxGeometry width="50" height="50" relative="1" as="geometry">
            <mxPoint x="200" y="235" as="sourcePoint" />
            <mxPoint x="300" y="170" as="targetPoint" />
          </mxGeometry>
        </mxCell>
        <mxCell id="5iUK_qK8FwpwGGYTWvAY-25" value="" style="endArrow=none;html=1;rounded=0;entryX=1;entryY=0.75;entryDx=0;entryDy=0;exitX=0.425;exitY=0.033;exitDx=0;exitDy=0;exitPerimeter=0;" edge="1" parent="1" source="5iUK_qK8FwpwGGYTWvAY-15" target="5iUK_qK8FwpwGGYTWvAY-1">
          <mxGeometry width="50" height="50" relative="1" as="geometry">
            <mxPoint x="200" y="235" as="sourcePoint" />
            <mxPoint x="250" y="185" as="targetPoint" />
          </mxGeometry>
        </mxCell>
        <mxCell id="5iUK_qK8FwpwGGYTWvAY-26" value="" style="endArrow=none;html=1;rounded=0;exitX=0.74;exitY=-0.033;exitDx=0;exitDy=0;exitPerimeter=0;entryX=0.25;entryY=1;entryDx=0;entryDy=0;" edge="1" parent="1" source="5iUK_qK8FwpwGGYTWvAY-13" target="5iUK_qK8FwpwGGYTWvAY-1">
          <mxGeometry width="50" height="50" relative="1" as="geometry">
            <mxPoint x="200" y="235" as="sourcePoint" />
            <mxPoint x="250" y="185" as="targetPoint" />
          </mxGeometry>
        </mxCell>
        <mxCell id="5iUK_qK8FwpwGGYTWvAY-28" value="" style="endArrow=none;html=1;rounded=0;entryX=1.017;entryY=0.383;entryDx=0;entryDy=0;entryPerimeter=0;exitX=0;exitY=0.5;exitDx=0;exitDy=0;" edge="1" parent="1" source="5iUK_qK8FwpwGGYTWvAY-16" target="5iUK_qK8FwpwGGYTWvAY-1">
          <mxGeometry width="50" height="50" relative="1" as="geometry">
            <mxPoint x="380" y="110" as="sourcePoint" />
            <mxPoint x="250" y="185" as="targetPoint" />
          </mxGeometry>
        </mxCell>
        <mxCell id="5iUK_qK8FwpwGGYTWvAY-30" value="" style="endArrow=none;html=1;rounded=0;entryX=0;entryY=0.75;entryDx=0;entryDy=0;exitX=1;exitY=0.5;exitDx=0;exitDy=0;" edge="1" parent="1" source="5iUK_qK8FwpwGGYTWvAY-9" target="5iUK_qK8FwpwGGYTWvAY-1">
          <mxGeometry width="50" height="50" relative="1" as="geometry">
            <mxPoint x="140" y="135" as="sourcePoint" />
            <mxPoint x="180" y="145" as="targetPoint" />
          </mxGeometry>
        </mxCell>
        <mxCell id="5iUK_qK8FwpwGGYTWvAY-31" value="" style="endArrow=none;html=1;rounded=0;entryX=0;entryY=1;entryDx=0;entryDy=0;exitX=0.75;exitY=0;exitDx=0;exitDy=0;" edge="1" parent="1" source="5iUK_qK8FwpwGGYTWvAY-1" target="5iUK_qK8FwpwGGYTWvAY-6">
          <mxGeometry width="50" height="50" relative="1" as="geometry">
            <mxPoint x="200" y="335" as="sourcePoint" />
            <mxPoint x="250" y="285" as="targetPoint" />
          </mxGeometry>
        </mxCell>
        <mxCell id="5iUK_qK8FwpwGGYTWvAY-32" value="" style="endArrow=none;html=1;rounded=0;entryX=0.346;entryY=0.975;entryDx=0;entryDy=0;exitX=0.833;exitY=0.083;exitDx=0;exitDy=0;exitPerimeter=0;entryPerimeter=0;" edge="1" parent="1" source="5iUK_qK8FwpwGGYTWvAY-1" target="5iUK_qK8FwpwGGYTWvAY-7">
          <mxGeometry width="50" height="50" relative="1" as="geometry">
            <mxPoint x="200" y="335" as="sourcePoint" />
            <mxPoint x="250" y="285" as="targetPoint" />
          </mxGeometry>
        </mxCell>
        <mxCell id="5iUK_qK8FwpwGGYTWvAY-33" value="" style="endArrow=none;html=1;rounded=0;exitX=0.5;exitY=0;exitDx=0;exitDy=0;" edge="1" parent="1" source="5iUK_qK8FwpwGGYTWvAY-14">
          <mxGeometry width="50" height="50" relative="1" as="geometry">
            <mxPoint x="160" y="260" as="sourcePoint" />
            <mxPoint x="260" y="165" as="targetPoint" />
          </mxGeometry>
        </mxCell>
        <mxCell id="5iUK_qK8FwpwGGYTWvAY-35" value="" style="endArrow=none;html=1;rounded=0;entryX=0.5;entryY=0;entryDx=0;entryDy=0;exitX=0.858;exitY=1;exitDx=0;exitDy=0;exitPerimeter=0;" edge="1" parent="1" source="5iUK_qK8FwpwGGYTWvAY-1" target="5iUK_qK8FwpwGGYTWvAY-12">
          <mxGeometry width="50" height="50" relative="1" as="geometry">
            <mxPoint x="200" y="235" as="sourcePoint" />
            <mxPoint x="250" y="185" as="targetPoint" />
          </mxGeometry>
        </mxCell>
        <mxCell id="5iUK_qK8FwpwGGYTWvAY-36" value="" style="endArrow=none;html=1;rounded=0;exitX=0.392;exitY=0.033;exitDx=0;exitDy=0;exitPerimeter=0;" edge="1" parent="1" source="5iUK_qK8FwpwGGYTWvAY-1">
          <mxGeometry width="50" height="50" relative="1" as="geometry">
            <mxPoint x="200" y="235" as="sourcePoint" />
            <mxPoint x="100" y="60" as="targetPoint" />
          </mxGeometry>
        </mxCell>
        <mxCell id="5iUK_qK8FwpwGGYTWvAY-37" value="COLLECTION" style="rounded=0;whiteSpace=wrap;html=1;" vertex="1" parent="1">
          <mxGeometry x="630" y="165" width="120" height="60" as="geometry" />
        </mxCell>
        <mxCell id="5iUK_qK8FwpwGGYTWvAY-38" value="ID" style="ellipse;whiteSpace=wrap;html=1;" vertex="1" parent="1">
          <mxGeometry x="680" y="255" width="50" height="30" as="geometry" />
        </mxCell>
        <mxCell id="5iUK_qK8FwpwGGYTWvAY-39" value="NAME" style="ellipse;whiteSpace=wrap;html=1;" vertex="1" parent="1">
          <mxGeometry x="565" y="245" width="60" height="30" as="geometry" />
        </mxCell>
        <mxCell id="5iUK_qK8FwpwGGYTWvAY-40" value="" style="endArrow=none;html=1;rounded=0;exitX=0.5;exitY=0;exitDx=0;exitDy=0;entryX=0.25;entryY=1;entryDx=0;entryDy=0;" edge="1" parent="1" target="5iUK_qK8FwpwGGYTWvAY-37">
          <mxGeometry width="50" height="50" relative="1" as="geometry">
            <mxPoint x="605" y="245" as="sourcePoint" />
            <mxPoint x="675" y="155" as="targetPoint" />
          </mxGeometry>
        </mxCell>
        <mxCell id="5iUK_qK8FwpwGGYTWvAY-42" style="edgeStyle=orthogonalEdgeStyle;rounded=0;orthogonalLoop=1;jettySize=auto;html=1;exitX=0.5;exitY=1;exitDx=0;exitDy=0;" edge="1" parent="1" source="5iUK_qK8FwpwGGYTWvAY-38" target="5iUK_qK8FwpwGGYTWvAY-38">
          <mxGeometry relative="1" as="geometry" />
        </mxCell>
        <mxCell id="5iUK_qK8FwpwGGYTWvAY-43" value="" style="endArrow=none;html=1;rounded=0;exitX=0.583;exitY=1;exitDx=0;exitDy=0;entryX=0.32;entryY=0.1;entryDx=0;entryDy=0;exitPerimeter=0;entryPerimeter=0;" edge="1" parent="1" source="5iUK_qK8FwpwGGYTWvAY-37" target="5iUK_qK8FwpwGGYTWvAY-38">
          <mxGeometry width="50" height="50" relative="1" as="geometry">
            <mxPoint x="625" y="205" as="sourcePoint" />
            <mxPoint x="685" y="245" as="targetPoint" />
          </mxGeometry>
        </mxCell>
        <mxCell id="5iUK_qK8FwpwGGYTWvAY-129" style="edgeStyle=orthogonalEdgeStyle;rounded=0;orthogonalLoop=1;jettySize=auto;html=1;exitX=0.5;exitY=1;exitDx=0;exitDy=0;" edge="1" parent="1" source="5iUK_qK8FwpwGGYTWvAY-45" target="5iUK_qK8FwpwGGYTWvAY-67">
          <mxGeometry relative="1" as="geometry" />
        </mxCell>
        <mxCell id="5iUK_qK8FwpwGGYTWvAY-45" value="ANHKEI" style="rhombus;whiteSpace=wrap;html=1;" vertex="1" parent="1">
          <mxGeometry x="436.25" y="85" width="132.5" height="80" as="geometry" />
        </mxCell>
        <mxCell id="5iUK_qK8FwpwGGYTWvAY-46" value="" style="endArrow=none;html=1;rounded=0;entryX=0;entryY=0.5;entryDx=0;entryDy=0;exitX=1;exitY=0.5;exitDx=0;exitDy=0;" edge="1" parent="1" source="5iUK_qK8FwpwGGYTWvAY-1" target="5iUK_qK8FwpwGGYTWvAY-45">
          <mxGeometry width="50" height="50" relative="1" as="geometry">
            <mxPoint x="400" y="400" as="sourcePoint" />
            <mxPoint x="450" y="350" as="targetPoint" />
          </mxGeometry>
        </mxCell>
        <mxCell id="5iUK_qK8FwpwGGYTWvAY-48" value="MOVIE_CAST" style="rounded=0;whiteSpace=wrap;html=1;" vertex="1" parent="1">
          <mxGeometry x="127.5" y="489.99" width="120" height="60" as="geometry" />
        </mxCell>
        <mxCell id="5iUK_qK8FwpwGGYTWvAY-49" value="MOVIE_ID" style="ellipse;whiteSpace=wrap;html=1;" vertex="1" parent="1">
          <mxGeometry x="302.5" y="489.99" width="80" height="50" as="geometry" />
        </mxCell>
        <mxCell id="5iUK_qK8FwpwGGYTWvAY-50" value="CAST_ID" style="ellipse;whiteSpace=wrap;html=1;" vertex="1" parent="1">
          <mxGeometry x="45" y="574.99" width="70" height="40" as="geometry" />
        </mxCell>
        <mxCell id="5iUK_qK8FwpwGGYTWvAY-51" value="CHARACTER" style="ellipse;whiteSpace=wrap;html=1;" vertex="1" parent="1">
          <mxGeometry x="127.5" y="619.99" width="90" height="40" as="geometry" />
        </mxCell>
        <mxCell id="5iUK_qK8FwpwGGYTWvAY-52" value="GENDER" style="ellipse;whiteSpace=wrap;html=1;" vertex="1" parent="1">
          <mxGeometry x="177.5" y="574.99" width="70" height="40" as="geometry" />
        </mxCell>
        <mxCell id="5iUK_qK8FwpwGGYTWvAY-53" value="PERSON_ID" style="ellipse;whiteSpace=wrap;html=1;" vertex="1" parent="1">
          <mxGeometry x="342.5" y="589.99" width="80" height="40" as="geometry" />
        </mxCell>
        <mxCell id="5iUK_qK8FwpwGGYTWvAY-54" value="NAME" style="ellipse;whiteSpace=wrap;html=1;" vertex="1" parent="1">
          <mxGeometry x="262.5" y="619.99" width="50" height="40" as="geometry" />
        </mxCell>
        <mxCell id="5iUK_qK8FwpwGGYTWvAY-55" value="" style="endArrow=none;html=1;rounded=0;entryX=0;entryY=1;entryDx=0;entryDy=0;exitX=1;exitY=0;exitDx=0;exitDy=0;" edge="1" parent="1" source="5iUK_qK8FwpwGGYTWvAY-50" target="5iUK_qK8FwpwGGYTWvAY-48">
          <mxGeometry width="50" height="50" relative="1" as="geometry">
            <mxPoint x="127.5" y="574.99" as="sourcePoint" />
            <mxPoint x="207.5" y="449.99" as="targetPoint" />
            <Array as="points" />
          </mxGeometry>
        </mxCell>
        <mxCell id="5iUK_qK8FwpwGGYTWvAY-56" value="" style="endArrow=none;html=1;rounded=0;entryX=0.25;entryY=1;entryDx=0;entryDy=0;exitX=0.5;exitY=0;exitDx=0;exitDy=0;" edge="1" parent="1" source="5iUK_qK8FwpwGGYTWvAY-51" target="5iUK_qK8FwpwGGYTWvAY-48">
          <mxGeometry width="50" height="50" relative="1" as="geometry">
            <mxPoint x="157.5" y="499.99" as="sourcePoint" />
            <mxPoint x="207.5" y="449.99" as="targetPoint" />
          </mxGeometry>
        </mxCell>
        <mxCell id="5iUK_qK8FwpwGGYTWvAY-57" value="" style="endArrow=none;html=1;rounded=0;entryX=0;entryY=0.5;entryDx=0;entryDy=0;exitX=1.015;exitY=0.39;exitDx=0;exitDy=0;exitPerimeter=0;" edge="1" parent="1" source="5iUK_qK8FwpwGGYTWvAY-48" target="5iUK_qK8FwpwGGYTWvAY-49">
          <mxGeometry width="50" height="50" relative="1" as="geometry">
            <mxPoint x="157.5" y="499.99" as="sourcePoint" />
            <mxPoint x="207.5" y="449.99" as="targetPoint" />
          </mxGeometry>
        </mxCell>
        <mxCell id="5iUK_qK8FwpwGGYTWvAY-60" value="" style="endArrow=none;html=1;rounded=0;entryX=0.24;entryY=0;entryDx=0;entryDy=0;entryPerimeter=0;exitX=0.85;exitY=1.017;exitDx=0;exitDy=0;exitPerimeter=0;" edge="1" parent="1" source="5iUK_qK8FwpwGGYTWvAY-48" target="5iUK_qK8FwpwGGYTWvAY-54">
          <mxGeometry width="50" height="50" relative="1" as="geometry">
            <mxPoint x="157.5" y="499.99" as="sourcePoint" />
            <mxPoint x="207.5" y="449.99" as="targetPoint" />
          </mxGeometry>
        </mxCell>
        <mxCell id="5iUK_qK8FwpwGGYTWvAY-62" value="GENRE" style="rounded=0;whiteSpace=wrap;html=1;" vertex="1" parent="1">
          <mxGeometry x="517.5" y="340" width="120" height="60" as="geometry" />
        </mxCell>
        <mxCell id="5iUK_qK8FwpwGGYTWvAY-63" value="ID" style="ellipse;whiteSpace=wrap;html=1;" vertex="1" parent="1">
          <mxGeometry x="385" y="430" width="70" height="40" as="geometry" />
        </mxCell>
        <mxCell id="5iUK_qK8FwpwGGYTWvAY-64" value="NAME" style="ellipse;whiteSpace=wrap;html=1;" vertex="1" parent="1">
          <mxGeometry x="610" y="435" width="90" height="30" as="geometry" />
        </mxCell>
        <mxCell id="5iUK_qK8FwpwGGYTWvAY-66" value="" style="endArrow=none;html=1;rounded=0;exitX=0;exitY=0;exitDx=0;exitDy=0;entryX=0.671;entryY=1.008;entryDx=0;entryDy=0;entryPerimeter=0;" edge="1" parent="1" source="5iUK_qK8FwpwGGYTWvAY-64" target="5iUK_qK8FwpwGGYTWvAY-62">
          <mxGeometry width="50" height="50" relative="1" as="geometry">
            <mxPoint x="365" y="490" as="sourcePoint" />
            <mxPoint x="415" y="440" as="targetPoint" />
          </mxGeometry>
        </mxCell>
        <mxCell id="5iUK_qK8FwpwGGYTWvAY-67" value="MOVIE_COLLECTION" style="rounded=0;whiteSpace=wrap;html=1;" vertex="1" parent="1">
          <mxGeometry x="432.5" y="489.99" width="140" height="50" as="geometry" />
        </mxCell>
        <mxCell id="5iUK_qK8FwpwGGYTWvAY-68" value="COLLECTION_ID" style="ellipse;whiteSpace=wrap;html=1;" vertex="1" parent="1">
          <mxGeometry x="462.5" y="569.99" width="120" height="50" as="geometry" />
        </mxCell>
        <mxCell id="5iUK_qK8FwpwGGYTWvAY-69" value="" style="endArrow=none;html=1;rounded=0;" edge="1" parent="1" source="5iUK_qK8FwpwGGYTWvAY-67" target="5iUK_qK8FwpwGGYTWvAY-68">
          <mxGeometry width="50" height="50" relative="1" as="geometry">
            <mxPoint x="452.5" y="399.99" as="sourcePoint" />
            <mxPoint x="502.5" y="349.99" as="targetPoint" />
          </mxGeometry>
        </mxCell>
        <mxCell id="5iUK_qK8FwpwGGYTWvAY-71" value="" style="endArrow=none;html=1;rounded=0;entryX=0;entryY=0.5;entryDx=0;entryDy=0;exitX=1;exitY=0.5;exitDx=0;exitDy=0;" edge="1" parent="1" source="5iUK_qK8FwpwGGYTWvAY-49" target="5iUK_qK8FwpwGGYTWvAY-67">
          <mxGeometry width="50" height="50" relative="1" as="geometry">
            <mxPoint x="452.5" y="399.99" as="sourcePoint" />
            <mxPoint x="502.5" y="349.99" as="targetPoint" />
          </mxGeometry>
        </mxCell>
        <mxCell id="5iUK_qK8FwpwGGYTWvAY-73" value="" style="endArrow=none;html=1;rounded=0;entryX=0.6;entryY=0.988;entryDx=0;entryDy=0;entryPerimeter=0;" edge="1" parent="1" source="5iUK_qK8FwpwGGYTWvAY-52" target="5iUK_qK8FwpwGGYTWvAY-48">
          <mxGeometry width="50" height="50" relative="1" as="geometry">
            <mxPoint x="452.5" y="519.99" as="sourcePoint" />
            <mxPoint x="502.5" y="469.99" as="targetPoint" />
          </mxGeometry>
        </mxCell>
        <mxCell id="5iUK_qK8FwpwGGYTWvAY-75" value="MOVIE_CREW" style="rounded=0;whiteSpace=wrap;html=1;" vertex="1" parent="1">
          <mxGeometry x="252.5" y="694.99" width="120" height="60" as="geometry" />
        </mxCell>
        <mxCell id="5iUK_qK8FwpwGGYTWvAY-76" value="MOVIE_ID" style="ellipse;whiteSpace=wrap;html=1;" vertex="1" parent="1">
          <mxGeometry x="247.5" y="792.5" width="90" height="30" as="geometry" />
        </mxCell>
        <mxCell id="5iUK_qK8FwpwGGYTWvAY-77" value="DEPARTMENT" style="ellipse;whiteSpace=wrap;html=1;" vertex="1" parent="1">
          <mxGeometry x="110" y="719.99" width="95" height="35" as="geometry" />
        </mxCell>
        <mxCell id="5iUK_qK8FwpwGGYTWvAY-78" value="GENDER" style="ellipse;whiteSpace=wrap;html=1;" vertex="1" parent="1">
          <mxGeometry x="142.5" y="790" width="90" height="35" as="geometry" />
        </mxCell>
        <mxCell id="5iUK_qK8FwpwGGYTWvAY-80" value="JOB" style="ellipse;whiteSpace=wrap;html=1;" vertex="1" parent="1">
          <mxGeometry x="370" y="790" width="75" height="30" as="geometry" />
        </mxCell>
        <mxCell id="5iUK_qK8FwpwGGYTWvAY-81" value="NAME" style="ellipse;whiteSpace=wrap;html=1;" vertex="1" parent="1">
          <mxGeometry x="397.5" y="709.99" width="120" height="30" as="geometry" />
        </mxCell>
        <mxCell id="5iUK_qK8FwpwGGYTWvAY-83" value="" style="endArrow=none;html=1;rounded=0;entryX=1;entryY=0.5;entryDx=0;entryDy=0;exitX=0;exitY=0.5;exitDx=0;exitDy=0;" edge="1" parent="1" source="5iUK_qK8FwpwGGYTWvAY-75">
          <mxGeometry width="50" height="50" relative="1" as="geometry">
            <mxPoint x="452.5" y="519.99" as="sourcePoint" />
            <mxPoint x="200.0000000000034" y="737.49" as="targetPoint" />
          </mxGeometry>
        </mxCell>
        <mxCell id="5iUK_qK8FwpwGGYTWvAY-84" value="" style="endArrow=none;html=1;rounded=0;entryX=0.669;entryY=-0.02;entryDx=0;entryDy=0;entryPerimeter=0;exitX=0;exitY=1;exitDx=0;exitDy=0;" edge="1" parent="1" source="5iUK_qK8FwpwGGYTWvAY-75">
          <mxGeometry width="50" height="50" relative="1" as="geometry">
            <mxPoint x="452.5" y="519.99" as="sourcePoint" />
            <mxPoint x="207.71000000000004" y="789.29" as="targetPoint" />
          </mxGeometry>
        </mxCell>
        <mxCell id="5iUK_qK8FwpwGGYTWvAY-85" value="" style="endArrow=none;html=1;rounded=0;exitX=0.5;exitY=1;exitDx=0;exitDy=0;" edge="1" parent="1" source="5iUK_qK8FwpwGGYTWvAY-75">
          <mxGeometry width="50" height="50" relative="1" as="geometry">
            <mxPoint x="452.5" y="519.99" as="sourcePoint" />
            <mxPoint x="308.80380024102556" y="794.9962972282065" as="targetPoint" />
          </mxGeometry>
        </mxCell>
        <mxCell id="5iUK_qK8FwpwGGYTWvAY-86" value="" style="endArrow=none;html=1;rounded=0;entryX=0.348;entryY=0.089;entryDx=0;entryDy=0;entryPerimeter=0;" edge="1" parent="1" source="5iUK_qK8FwpwGGYTWvAY-75">
          <mxGeometry width="50" height="50" relative="1" as="geometry">
            <mxPoint x="452.5" y="519.99" as="sourcePoint" />
            <mxPoint x="398.5999999999999" y="792.6600000000001" as="targetPoint" />
          </mxGeometry>
        </mxCell>
        <mxCell id="5iUK_qK8FwpwGGYTWvAY-87" value="" style="endArrow=none;html=1;rounded=0;entryX=0;entryY=0.5;entryDx=0;entryDy=0;exitX=1;exitY=0.5;exitDx=0;exitDy=0;" edge="1" parent="1" source="5iUK_qK8FwpwGGYTWvAY-75" target="5iUK_qK8FwpwGGYTWvAY-81">
          <mxGeometry width="50" height="50" relative="1" as="geometry">
            <mxPoint x="452.5" y="519.99" as="sourcePoint" />
            <mxPoint x="502.5" y="469.99" as="targetPoint" />
          </mxGeometry>
        </mxCell>
        <mxCell id="5iUK_qK8FwpwGGYTWvAY-88" value="MOVIE_GENRES" style="rounded=0;whiteSpace=wrap;html=1;" vertex="1" parent="1">
          <mxGeometry x="252.5" y="330" width="120" height="60" as="geometry" />
        </mxCell>
        <mxCell id="5iUK_qK8FwpwGGYTWvAY-89" value="" style="endArrow=classic;html=1;rounded=0;entryX=0.5;entryY=1;entryDx=0;entryDy=0;exitX=0.5;exitY=0;exitDx=0;exitDy=0;" edge="1" parent="1" source="5iUK_qK8FwpwGGYTWvAY-49" target="5iUK_qK8FwpwGGYTWvAY-88">
          <mxGeometry width="50" height="50" relative="1" as="geometry">
            <mxPoint x="360" y="270" as="sourcePoint" />
            <mxPoint x="410" y="220" as="targetPoint" />
          </mxGeometry>
        </mxCell>
        <mxCell id="5iUK_qK8FwpwGGYTWvAY-90" value="" style="endArrow=classic;html=1;rounded=0;exitX=0.058;exitY=0.203;exitDx=0;exitDy=0;entryX=1;entryY=1;entryDx=0;entryDy=0;exitPerimeter=0;" edge="1" parent="1" source="5iUK_qK8FwpwGGYTWvAY-63" target="5iUK_qK8FwpwGGYTWvAY-88">
          <mxGeometry width="50" height="50" relative="1" as="geometry">
            <mxPoint x="415" y="290" as="sourcePoint" />
            <mxPoint x="465" y="240" as="targetPoint" />
            <Array as="points" />
          </mxGeometry>
        </mxCell>
        <mxCell id="5iUK_qK8FwpwGGYTWvAY-91" value="" style="endArrow=classic;html=1;rounded=0;" edge="1" parent="1">
          <mxGeometry width="50" height="50" relative="1" as="geometry">
            <mxPoint x="372.5" y="629.99" as="sourcePoint" />
            <mxPoint x="322.5" y="689.99" as="targetPoint" />
          </mxGeometry>
        </mxCell>
        <mxCell id="5iUK_qK8FwpwGGYTWvAY-92" value="MOVIE_PRODUCTIONCOMPANIES" style="rounded=0;whiteSpace=wrap;html=1;" vertex="1" parent="1">
          <mxGeometry x="610" y="485" width="230" height="60" as="geometry" />
        </mxCell>
        <mxCell id="5iUK_qK8FwpwGGYTWvAY-96" value="" style="endArrow=classic;html=1;rounded=0;entryX=0.711;entryY=-0.002;entryDx=0;entryDy=0;entryPerimeter=0;exitX=0.5;exitY=1;exitDx=0;exitDy=0;" edge="1" parent="1" source="5iUK_qK8FwpwGGYTWvAY-2" target="5iUK_qK8FwpwGGYTWvAY-92">
          <mxGeometry width="50" height="50" relative="1" as="geometry">
            <mxPoint x="360" y="510" as="sourcePoint" />
            <mxPoint x="410" y="460" as="targetPoint" />
          </mxGeometry>
        </mxCell>
        <mxCell id="5iUK_qK8FwpwGGYTWvAY-98" value="PC_ID" style="ellipse;whiteSpace=wrap;html=1;" vertex="1" parent="1">
          <mxGeometry x="730" y="610" width="80" height="30" as="geometry" />
        </mxCell>
        <mxCell id="5iUK_qK8FwpwGGYTWvAY-99" value="" style="endArrow=none;html=1;rounded=0;exitX=0.693;exitY=1.003;exitDx=0;exitDy=0;exitPerimeter=0;entryX=0.5;entryY=0;entryDx=0;entryDy=0;" edge="1" parent="1" source="5iUK_qK8FwpwGGYTWvAY-92" target="5iUK_qK8FwpwGGYTWvAY-98">
          <mxGeometry width="50" height="50" relative="1" as="geometry">
            <mxPoint x="360" y="510" as="sourcePoint" />
            <mxPoint x="550" y="740" as="targetPoint" />
            <Array as="points" />
          </mxGeometry>
        </mxCell>
        <mxCell id="5iUK_qK8FwpwGGYTWvAY-100" value="PRODUCTIONCOMPANY" style="rounded=0;whiteSpace=wrap;html=1;" vertex="1" parent="1">
          <mxGeometry x="590" y="745" width="190" height="50" as="geometry" />
        </mxCell>
        <mxCell id="5iUK_qK8FwpwGGYTWvAY-101" value="" style="endArrow=classic;html=1;rounded=0;entryX=0.25;entryY=1;entryDx=0;entryDy=0;exitX=1;exitY=0;exitDx=0;exitDy=0;" edge="1" parent="1" source="5iUK_qK8FwpwGGYTWvAY-63" target="5iUK_qK8FwpwGGYTWvAY-62">
          <mxGeometry width="50" height="50" relative="1" as="geometry">
            <mxPoint x="415" y="580" as="sourcePoint" />
            <mxPoint x="465" y="530" as="targetPoint" />
          </mxGeometry>
        </mxCell>
        <mxCell id="5iUK_qK8FwpwGGYTWvAY-102" value="" style="endArrow=classic;html=1;rounded=0;exitX=0;exitY=0;exitDx=0;exitDy=0;entryX=1;entryY=1;entryDx=0;entryDy=0;" edge="1" parent="1" source="5iUK_qK8FwpwGGYTWvAY-2" target="5iUK_qK8FwpwGGYTWvAY-1">
          <mxGeometry width="50" height="50" relative="1" as="geometry">
            <mxPoint x="360" y="330" as="sourcePoint" />
            <mxPoint x="310" y="150" as="targetPoint" />
          </mxGeometry>
        </mxCell>
        <mxCell id="5iUK_qK8FwpwGGYTWvAY-103" value="RATINGS" style="rounded=0;whiteSpace=wrap;html=1;" vertex="1" parent="1">
          <mxGeometry x="390" y="870" width="120" height="40" as="geometry" />
        </mxCell>
        <mxCell id="5iUK_qK8FwpwGGYTWvAY-104" value="USER_ID" style="ellipse;whiteSpace=wrap;html=1;" vertex="1" parent="1">
          <mxGeometry x="310" y="940" width="80" height="40" as="geometry" />
        </mxCell>
        <mxCell id="5iUK_qK8FwpwGGYTWvAY-105" value="MOVIE_ID" style="ellipse;whiteSpace=wrap;html=1;" vertex="1" parent="1">
          <mxGeometry x="485" y="940" width="70" height="45" as="geometry" />
        </mxCell>
        <mxCell id="5iUK_qK8FwpwGGYTWvAY-106" value="RATING" style="ellipse;whiteSpace=wrap;html=1;" vertex="1" parent="1">
          <mxGeometry x="400" y="940" width="80" height="40" as="geometry" />
        </mxCell>
        <mxCell id="5iUK_qK8FwpwGGYTWvAY-108" value="" style="endArrow=none;html=1;rounded=0;entryX=0.25;entryY=1;entryDx=0;entryDy=0;exitX=0.5;exitY=0;exitDx=0;exitDy=0;" edge="1" parent="1" source="5iUK_qK8FwpwGGYTWvAY-104" target="5iUK_qK8FwpwGGYTWvAY-103">
          <mxGeometry width="50" height="50" relative="1" as="geometry">
            <mxPoint x="360" y="680" as="sourcePoint" />
            <mxPoint x="410" y="630" as="targetPoint" />
          </mxGeometry>
        </mxCell>
        <mxCell id="5iUK_qK8FwpwGGYTWvAY-110" value="" style="endArrow=none;html=1;rounded=0;exitX=0.5;exitY=0;exitDx=0;exitDy=0;" edge="1" parent="1" source="5iUK_qK8FwpwGGYTWvAY-106">
          <mxGeometry width="50" height="50" relative="1" as="geometry">
            <mxPoint x="360" y="680" as="sourcePoint" />
            <mxPoint x="450" y="910" as="targetPoint" />
          </mxGeometry>
        </mxCell>
        <mxCell id="5iUK_qK8FwpwGGYTWvAY-112" value="" style="endArrow=none;html=1;rounded=0;exitX=0.5;exitY=0;exitDx=0;exitDy=0;entryX=0.75;entryY=1;entryDx=0;entryDy=0;" edge="1" parent="1" source="5iUK_qK8FwpwGGYTWvAY-105" target="5iUK_qK8FwpwGGYTWvAY-103">
          <mxGeometry width="50" height="50" relative="1" as="geometry">
            <mxPoint x="360" y="680" as="sourcePoint" />
            <mxPoint x="410" y="630" as="targetPoint" />
          </mxGeometry>
        </mxCell>
        <mxCell id="5iUK_qK8FwpwGGYTWvAY-113" value="KEYWORD" style="rounded=0;whiteSpace=wrap;html=1;" vertex="1" parent="1">
          <mxGeometry x="45" y="870" width="100" height="40" as="geometry" />
        </mxCell>
        <mxCell id="5iUK_qK8FwpwGGYTWvAY-114" value="ID" style="ellipse;whiteSpace=wrap;html=1;" vertex="1" parent="1">
          <mxGeometry x="20" y="935" width="65" height="40" as="geometry" />
        </mxCell>
        <mxCell id="5iUK_qK8FwpwGGYTWvAY-115" value="NAME" style="ellipse;whiteSpace=wrap;html=1;" vertex="1" parent="1">
          <mxGeometry x="100" y="935" width="70" height="40" as="geometry" />
        </mxCell>
        <mxCell id="5iUK_qK8FwpwGGYTWvAY-116" value="" style="endArrow=none;html=1;rounded=0;exitX=0.5;exitY=0;exitDx=0;exitDy=0;entryX=0.25;entryY=1;entryDx=0;entryDy=0;" edge="1" parent="1" source="5iUK_qK8FwpwGGYTWvAY-114" target="5iUK_qK8FwpwGGYTWvAY-113">
          <mxGeometry width="50" height="50" relative="1" as="geometry">
            <mxPoint x="360" y="680" as="sourcePoint" />
            <mxPoint x="410" y="630" as="targetPoint" />
          </mxGeometry>
        </mxCell>
        <mxCell id="5iUK_qK8FwpwGGYTWvAY-117" value="" style="endArrow=none;html=1;rounded=0;exitX=0.5;exitY=0;exitDx=0;exitDy=0;entryX=0.75;entryY=1;entryDx=0;entryDy=0;" edge="1" parent="1" source="5iUK_qK8FwpwGGYTWvAY-115" target="5iUK_qK8FwpwGGYTWvAY-113">
          <mxGeometry width="50" height="50" relative="1" as="geometry">
            <mxPoint x="360" y="680" as="sourcePoint" />
            <mxPoint x="410" y="630" as="targetPoint" />
          </mxGeometry>
        </mxCell>
        <mxCell id="5iUK_qK8FwpwGGYTWvAY-118" value="" style="endArrow=classic;html=1;rounded=0;entryX=1;entryY=0.75;entryDx=0;entryDy=0;exitX=0;exitY=0;exitDx=0;exitDy=0;" edge="1" parent="1" source="5iUK_qK8FwpwGGYTWvAY-53" target="5iUK_qK8FwpwGGYTWvAY-48">
          <mxGeometry width="50" height="50" relative="1" as="geometry">
            <mxPoint x="452.5" y="689.99" as="sourcePoint" />
            <mxPoint x="502.5" y="639.99" as="targetPoint" />
          </mxGeometry>
        </mxCell>
        <mxCell id="5iUK_qK8FwpwGGYTWvAY-119" value="MOVIE_KEYWORDS" style="rounded=0;whiteSpace=wrap;html=1;" vertex="1" parent="1">
          <mxGeometry x="20" y="310" width="140" height="50" as="geometry" />
        </mxCell>
        <mxCell id="5iUK_qK8FwpwGGYTWvAY-120" value="" style="endArrow=classic;html=1;rounded=0;entryX=0.848;entryY=1.033;entryDx=0;entryDy=0;entryPerimeter=0;exitX=0;exitY=0;exitDx=0;exitDy=0;" edge="1" parent="1" source="5iUK_qK8FwpwGGYTWvAY-49" target="5iUK_qK8FwpwGGYTWvAY-119">
          <mxGeometry width="50" height="50" relative="1" as="geometry">
            <mxPoint x="360" y="560" as="sourcePoint" />
            <mxPoint x="410" y="510" as="targetPoint" />
          </mxGeometry>
        </mxCell>
        <mxCell id="5iUK_qK8FwpwGGYTWvAY-121" value="KEY_ID" style="ellipse;whiteSpace=wrap;html=1;" vertex="1" parent="1">
          <mxGeometry x="23.75" y="425" width="66.25" height="25" as="geometry" />
        </mxCell>
        <mxCell id="5iUK_qK8FwpwGGYTWvAY-125" value="" style="endArrow=none;html=1;rounded=0;entryX=0.25;entryY=1;entryDx=0;entryDy=0;exitX=0.5;exitY=0;exitDx=0;exitDy=0;" edge="1" parent="1" source="5iUK_qK8FwpwGGYTWvAY-121" target="5iUK_qK8FwpwGGYTWvAY-119">
          <mxGeometry width="50" height="50" relative="1" as="geometry">
            <mxPoint x="360" y="560" as="sourcePoint" />
            <mxPoint x="410" y="510" as="targetPoint" />
          </mxGeometry>
        </mxCell>
      </root>
    </mxGraphModel>
  </diagram>
</mxfile>
